<?xml version="1.0" encoding="utf-8"?>
<!-- Generator: Adobe Illustrator 27.5.0, SVG Export Plug-In . SVG Version: 6.00 Build 0)  -->
<svg version="1.1" xmlns="http://www.w3.org/2000/svg" xmlns:xlink="http://www.w3.org/1999/xlink" x="0px" y="0px"
	 viewBox="0 0 2200 2200" style="enable-background:new 0 0 2200 2200;" xml:space="preserve">
<g id="background">
	
</g>
<g id="Objects">
	<g>
		<path style="fill:#e1172f;" d="M243.745,802.525c0.008,0.089,0.018,0.177,0.026,0.266
			C243.587,790.193,243.455,799.207,243.745,802.525z"/>
		<path style="fill:#e1172f;" d="M1973.777,507.873c-34.367-91.961-92.998-174.927-175.75-229.373
			c-82.958-54.582-187.076-75.256-284.953-60.965c-98.698,14.41-187.083,61.732-257.829,131.363
			c-70.072,68.968-120.074,157.498-149.927,250.754c-0.534,1.669-1.037,3.345-1.554,5.018
			c-64.914-132.714-173.498-247.958-316.335-294.09c-84.094-27.159-172.821-29.476-258.087-6.315
			c-82.222,22.334-156.045,69.005-211.606,133.665C198.229,577.008,162.851,783.344,226.382,954.89
			c60.15,162.417,191.977,281.688,334.757,373.02c73.628,47.098,150.459,88.958,224.287,135.739
			c36.557,23.164,72.423,47.492,106.622,74.037c8.155,6.33,16.214,12.784,24.16,19.375c0.12,0.1,3.681,3.105,4.237,3.563
			c1.699,1.452,3.397,2.905,5.084,4.37c4.256,3.695,8.475,7.432,12.654,11.213c16.081,14.549,31.577,29.751,46.321,45.656
			c14.945,16.122,29.06,32.977,42.342,50.494c13.188,17.393,29.126-4.01,32.703-17.15c5.705-20.958,5.054-47.43-8.575-65.405
			c-105.021-138.506-259.471-223.041-405.879-310.391c-35.204-21.004-70.251-42.322-104.15-65.393
			c-16.119-10.97-31.995-22.3-47.568-34.032c-7.836-5.903-15.594-11.909-23.267-18.022c-3.493-2.783-6.969-5.589-10.426-8.417
			c-2.075-1.698-4.143-3.404-6.205-5.118c-0.887-0.737-1.77-1.479-2.654-2.22c-0.274-0.235-0.901-0.768-1.887-1.606
			c-30.069-25.931-58.72-53.439-84.849-83.368c-13.094-14.998-25.556-30.552-37.228-46.683c-5.188-7.17-10.32-14.433-15.114-21.881
			c-0.289-0.466-0.59-0.952-0.79-1.278c-1.383-2.248-2.802-4.473-4.179-6.725c-2.753-4.501-5.441-9.042-8.061-13.622
			c-10.052-17.57-19.104-35.716-26.98-54.366c-1.718-4.068-3.263-8.211-4.985-12.275c4.407,10.399,0.776,1.896-0.01-0.264
			c-0.911-2.5-1.8-5.008-2.668-7.524c-3.198-9.271-6.099-18.644-8.699-28.101c-1.429-5.198-2.764-10.423-4.003-15.67
			c-0.379-1.605-0.734-3.216-1.109-4.822c-1.981-10.633-3.824-21.261-5.116-32.006c-0.529-4.401-0.988-8.811-1.378-13.227
			c0.007,0.511,0.015,1.044,0.023,1.628c-0.029-2.25-0.258-4.515-0.36-6.765c-0.472-10.369-0.566-20.755-0.289-31.131
			c0.092-3.44,0.178-6.901,0.347-10.352c0.035-0.346,0.075-0.761,0.122-1.253c0.259-2.693,0.467-5.39,0.736-8.081
			c1.079-10.762,2.546-21.485,4.389-32.143c0.509-2.944,1.31-5.957,1.884-8.957c0.094-1.143,0.255-2.487,0.478-3.468
			c0.027-0.119,0.056-0.237,0.083-0.355c0.016-0.166,0.039-0.334,0.052-0.5c-0.011,0.146-0.021,0.274-0.032,0.414
			c0.368-1.608,0.741-3.216,1.126-4.82c2.516-10.498,5.396-20.909,8.628-31.209c1.345-4.286,2.751-8.553,4.218-12.8
			c0.879-2.546,1.78-5.084,2.703-7.615c0.342-0.937,0.828-2.787,1.14-4.082c2.758-8.436,7.428-16.869,11.093-24.702
			c8.302-17.749,17.24-36.798,28.88-52.653c-5.266,7.172,2.661-3.94,3.946-5.813c2.995-4.365,6.069-8.678,9.22-12.932
			c5.752-7.766,11.752-15.348,18.003-22.719c12.951-15.269,26.971-29.639,41.998-42.873c-0.115,0.102,1.627-1.406,2.827-2.449
			c1.164-0.961,3.467-2.885,3.334-2.777c4.242-3.447,8.557-6.804,12.937-10.073c8.197-6.117,16.627-11.918,25.262-17.398
			c17.875-11.346,36.651-21.285,56.066-29.728c38.505-16.743,73.112-25.918,114.789-30.741c39.803-4.606,80.235-3.703,119.793,2.676
			c39.099,6.305,74.259,17.434,111.5,35.179c35.05,16.7,67.916,37.877,98.017,62.372c1.514,1.232,3.016,2.481,4.516,3.731
			c0.785,0.687,3.488,3.003,3.776,3.254c3.294,2.876,6.553,5.793,9.776,8.748c7.766,7.122,15.325,14.471,22.669,22.028
			c13.57,13.964,26.408,28.639,38.481,43.916c6.079,7.693,11.965,15.54,17.652,23.527c2.593,3.642,5.146,7.314,7.656,11.013
			c1.509,2.223,2.985,4.468,4.481,6.7c0.164,0.245,0.302,0.45,0.429,0.639c0.277,0.448,0.693,1.113,1.292,2.062
			c10.809,17.143,20.754,34.83,29.793,52.969c4.44,8.909,8.664,17.927,12.66,27.044c1.82,4.152,3.595,8.324,5.323,12.515
			c1.038,2.517,2.036,5.05,3.062,7.572c0.018,0.045,0.032,0.08,0.05,0.123c0.046,0.123,0.088,0.233,0.139,0.367
			c3.738,9.875,10.191,26.533,23.816,22.823c13.665-3.721,17.422-22.195,19.818-33.979c0.573-2.54,1.137-5.081,1.731-7.615
			c1.461-6.23,3.022-12.436,4.681-18.616c2.958-11.019,6.23-21.953,9.806-32.787c1.714-5.191,3.497-10.359,5.351-15.502
			c0.926-2.569,1.869-5.131,2.83-7.687c0.479-1.274,1.011-2.54,1.451-3.828c-0.169,0.494-0.331,0.954-0.481,1.375
			c0.076-0.189,0.148-0.372,0.234-0.585c4.227-10.522,8.749-20.925,13.564-31.191c9.76-20.807,20.719-41.054,32.845-60.577
			c0.281-0.453,1.202-1.928,1.999-3.205c0.366-0.535,2.83-4.358,3.344-5.129c3.469-5.197,7.024-10.336,10.664-15.414
			c6.47-9.027,13.208-17.863,20.213-26.482c14.157-17.42,29.401-33.962,45.684-49.415c3.803-3.609,7.661-7.157,11.577-10.644
			c1.953-1.739,3.958-3.423,5.902-5.172c0.114-0.103,0.206-0.186,0.298-0.269c1.325-1.109,2.656-2.211,3.995-3.304
			c8.401-6.856,17.035-13.429,25.891-19.687c38.501-27.205,81.199-48.163,126.428-61.524c19.26-5.69,44.272-10.577,66.988-13.129
			c23.78-2.671,47.786-3.336,71.675-1.929c48.612,2.863,91.332,13.033,135.171,32.953c21.321,9.688,41.763,21.327,60.914,34.808
			c4.191,2.95,8.321,5.987,12.388,9.105c2.038,1.563,4.061,3.146,6.067,4.75c1.004,0.803,2.006,1.609,3.002,2.421
			c0.339,0.276,2.664,2.239,3.529,2.956c1.139,1.004,3.006,2.641,3.51,3.09c1.931,1.717,3.845,3.453,5.742,5.207
			c4.122,3.811,8.165,7.707,12.125,11.686c15.673,15.747,30.063,32.764,43.085,50.762c3.089,4.269,6.1,8.593,9.034,12.969
			c0.167,0.249,0.372,0.52,0.59,0.803c0.095,0.154,0.207,0.336,0.348,0.564c1.859,2.997,3.75,5.971,5.573,8.991
			c5.712,9.462,11.076,19.134,16.077,28.991c5.221,10.291,10.05,20.782,14.47,31.441c0.92,2.218,1.687,4.58,2.702,6.766
			c0.12,0.321,0.241,0.642,0.359,0.964c1.995,5.437,3.884,10.913,5.667,16.423c3.573,11.037,6.716,22.212,9.414,33.495
			c0.444,1.857,0.861,3.719,1.283,5.581c0.095,0.446,0.192,0.892,0.279,1.338c1.108,5.706,2.103,11.435,2.98,17.181
			c0.81,5.309,1.52,10.633,2.128,15.969c0.304,2.669,0.583,5.342,0.837,8.017c0.19,2.002,0.418,6.503,0.491,7.895
			c0.344,8.813,0.6,17.61,0.422,26.448c-0.054,2.698-0.135,5.396-0.244,8.093c-0.037,0.91-0.181,3.453-0.267,5.087
			c-0.04,0.505-0.075,0.933-0.099,1.205c-0.343,3.901-0.741,7.796-1.192,11.685c-1.382,11.925-4.412,23.75-5.662,35.642
			c-0.025,0.112-0.049,0.224-0.075,0.336c-0.645,2.83-1.317,5.654-2.015,8.472c-1.626,6.565-3.395,13.096-5.303,19.584
			c-3.197,10.871-6.932,21.523-10.717,32.192c-0.463,1.036-0.794,2.235-1.191,3.229c-1.074,2.686-2.171,5.363-3.289,8.031
			c-2.609,6.226-5.335,12.403-8.171,18.529c-5.066,10.942-10.483,21.721-16.216,32.329c-5.962,11.031-12.264,21.88-18.873,32.536
			c-1.524,2.458-3.093,4.889-4.62,7.345c3.176-5.107-0.092,0.145-1.466,2.22c-3.456,5.217-6.984,10.386-10.577,15.509
			c-14.017,19.979-29.052,39.24-44.913,57.788c-69.943,81.792-154.55,149.034-235.937,218.821
			c-69.203,59.34-137.334,120.519-203.038,183.721c-62.964,60.567-122.834,124.638-174.535,195.197
			c-57.846,78.945-104.321,164.497-139.027,255.974c-8.802,23.198-16.701,46.723-23.835,70.486
			c-3.44,11.461-4.079,25.042-2.41,36.836c1.23,8.69,4.379,21.93,10.984,28.569c15.173,15.25,28.162-2.025,32.703-17.15
			c3.75-12.493,7.695-24.926,11.895-37.276c2.061-6.062,4.181-12.105,6.356-18.127c2.008-5.559,5.578-11.847,6.592-17.657
			c0.341-0.868,0.682-1.735,1.026-2.602c1.063-2.673,2.138-5.342,3.224-8.005c2.337-5.728,4.726-11.435,7.169-17.119
			c5-11.63,10.226-23.163,15.673-34.59c10.225-21.454,21.234-42.534,32.985-63.192c5.753-10.113,11.682-20.125,17.782-30.033
			c3.023-4.911,6.102-9.786,9.193-14.654c0.23-0.363,0.419-0.66,0.572-0.903c0.104-0.158,0.217-0.33,0.344-0.524
			c1.693-2.577,3.385-5.153,5.095-7.718c49.92-74.924,109.42-142.853,173.09-206.33c64.141-63.948,131.989-124.325,199.899-184.22
			c83.017-73.22,171.338-140.911,246.584-222.501c71.183-77.184,129.861-168.423,159.328-269.846
			C2014.034,723.726,2011.887,609.849,1973.777,507.873z M1894.15,481.247c0.546,0.71,1.114,1.474,1.348,2.165
			C1895.467,483.32,1894.711,482.12,1894.15,481.247z"/>
		<path style="fill:#e1172f;" d="M1157.438,617.062C1155.898,620.924,1156.392,619.983,1157.438,617.062L1157.438,617.062z"/>
		<path style="fill:#e1172f;" d="M250.623,705.736c-0.235,2.845-0.059,4.432,0.581-3.909c-0.007,0.028-0.013,0.057-0.02,0.085
			C251.065,703.18,250.867,704.457,250.623,705.736z"/>
	</g>
</g>
</svg>
